<svg xmlns="http://www.w3.org/2000/svg" width="914" height="465" viewBox="0 0 914 465">
  <g id="Path_3" data-name="Path 3" fill="#fff">
    <path d="M 896 464.5 L 18 464.5 C 13.3255558013916 464.5 8.930999755859375 462.6796569824219 5.625666618347168 459.3743286132813 C 2.320333242416382 456.0690002441406 0.5 451.6744384765625 0.5 447 L 0.5 18 C 0.5 13.3255558013916 2.320333242416382 8.930999755859375 5.625666618347168 5.625666618347168 C 8.930999755859375 2.320333242416382 13.3255558013916 0.5 18 0.5 L 896 0.5 C 900.6744384765625 0.5 905.0689697265625 2.320333242416382 908.3743286132813 5.625666618347168 C 911.6796875 8.930999755859375 913.5 13.3255558013916 913.5 18 L 913.5 447 C 913.5 451.6744384765625 911.6796875 456.0690002441406 908.3743286132813 459.3743286132813 C 905.0689697265625 462.6796569824219 900.6744384765625 464.5 896 464.5 Z" stroke="none"/>
    <path d="M 18 1 C 13.4591064453125 1 9.19012451171875 2.768341064453125 5.979248046875 5.979217529296875 C 2.768310546875 9.19012451171875 1 13.4591064453125 1 18 L 1 447 C 1 451.5408935546875 2.768310546875 455.8098754882813 5.979248046875 459.0207824707031 C 9.19012451171875 462.2316589355469 13.4591064453125 464 18 464 L 896 464 C 900.5408935546875 464 904.8098754882813 462.2316589355469 908.020751953125 459.0207824707031 C 911.231689453125 455.8098754882813 913 451.5408935546875 913 447 L 913 18 C 913 13.4591064453125 911.231689453125 9.19012451171875 908.020751953125 5.979217529296875 C 904.8098754882813 2.768341064453125 900.5408935546875 1 896 1 L 18 1 M 18 0 L 896 0 C 905.9411010742188 0 914 8.05889892578125 914 18 L 914 447 C 914 456.9411010742188 905.9411010742188 465 896 465 L 18 465 C 8.05889892578125 465 0 456.9411010742188 0 447 L 0 18 C 0 8.05889892578125 8.05889892578125 0 18 0 Z" stroke="none" fill="#707070"/>
  </g>
</svg>
